<svg xmlns="http://www.w3.org/2000/svg" width="600" height="400" viewBox="0 0 600 400" fill="none">
    <rect width="600" height="400" rx="8" fill="#0D0D1A" />
    <!-- Header -->
    <rect x="0" y="0" width="600" height="48" rx="8" fill="#131320" />
    <rect x="0" y="40" width="600" height="8" fill="#131320" />
    <rect x="20" y="16" width="120" height="16" rx="4" fill="#F0F0F8" opacity="0.6" />
    <!-- ZarinPal Card -->
    <rect x="20" y="68" width="174" height="130" rx="8" fill="#131320" stroke="rgba(55,138,221,0.4)"
        stroke-width="1.5" />
    <rect x="20" y="68" width="174" height="4" rx="2" fill="#378ADD" opacity="0.8" />
    <rect x="32" y="84" width="70" height="12" rx="3" fill="#F0F0F8" opacity="0.8" />
    <rect x="32" y="102" width="100" height="8" rx="2" fill="#8888AA" opacity="0.5" />
    <rect x="32" y="116" width="80" height="8" rx="2" fill="#8888AA" opacity="0.4" />
    <rect x="32" y="152" width="80" height="28" rx="6" fill="#378ADD" opacity="0.15" stroke="rgba(55,138,221,0.4)"
        stroke-width="1" />
    <rect x="44" y="160" width="56" height="12" rx="2" fill="#378ADD" opacity="0.8" />
    <circle cx="162" cy="106" r="12" fill="#378ADD" opacity="0.1" stroke="rgba(55,138,221,0.3)" stroke-width="1" />
    <rect x="156" y="102" width="12" height="8" rx="1" fill="#378ADD" opacity="0.6" />
    <!-- IDPay Card -->
    <rect x="213" y="68" width="174" height="130" rx="8" fill="#131320" stroke="rgba(255,255,255,0.07)"
        stroke-width="1" />
    <rect x="225" y="84" width="60" height="12" rx="3" fill="#F0F0F8" opacity="0.8" />
    <rect x="225" y="102" width="90" height="8" rx="2" fill="#8888AA" opacity="0.5" />
    <rect x="225" y="116" width="70" height="8" rx="2" fill="#8888AA" opacity="0.4" />
    <rect x="225" y="152" width="80" height="28" rx="6" fill="rgba(255,255,255,0.04)" stroke="rgba(255,255,255,0.1)"
        stroke-width="1" />
    <rect x="237" y="160" width="56" height="12" rx="2" fill="#8888AA" opacity="0.6" />
    <circle cx="355" cy="106" r="12" fill="rgba(255,255,255,0.04)" stroke="rgba(255,255,255,0.1)" stroke-width="1" />
    <rect x="349" y="102" width="12" height="8" rx="1" fill="#8888AA" opacity="0.4" />
    <!-- NextPay Card -->
    <rect x="406" y="68" width="174" height="130" rx="8" fill="#131320" stroke="rgba(255,255,255,0.07)"
        stroke-width="1" />
    <rect x="418" y="84" width="65" height="12" rx="3" fill="#F0F0F8" opacity="0.8" />
    <rect x="418" y="102" width="95" height="8" rx="2" fill="#8888AA" opacity="0.5" />
    <rect x="418" y="116" width="75" height="8" rx="2" fill="#8888AA" opacity="0.4" />
    <rect x="418" y="152" width="80" height="28" rx="6" fill="rgba(255,255,255,0.04)" stroke="rgba(255,255,255,0.1)"
        stroke-width="1" />
    <rect x="430" y="160" width="56" height="12" rx="2" fill="#8888AA" opacity="0.6" />
    <!-- Configuration form -->
    <rect x="20" y="218" width="360" height="162" rx="8" fill="#131320" stroke="rgba(255,255,255,0.07)"
        stroke-width="1" />
    <rect x="32" y="230" width="120" height="12" rx="3" fill="#F0F0F8" opacity="0.7" />
    <rect x="20" y="250" width="360" height="1" fill="rgba(255,255,255,0.07)" />
    <rect x="32" y="262" width="60" height="8" rx="2" fill="#8888AA" opacity="0.5" />
    <rect x="32" y="276" width="316" height="28" rx="6" fill="#0A0A17" stroke="rgba(255,255,255,0.1)"
        stroke-width="1" />
    <rect x="44" y="284" width="180" height="12" rx="3" fill="#8888AA" opacity="0.3" />
    <rect x="32" y="314" width="60" height="8" rx="2" fill="#8888AA" opacity="0.5" />
    <rect x="32" y="328" width="316" height="28" rx="6" fill="#0A0A17" stroke="rgba(255,255,255,0.1)"
        stroke-width="1" />
    <rect x="44" y="336" width="100" height="12" rx="3" fill="#8888AA" opacity="0.3" />
    <rect x="32" y="360" width="80" height="8" rx="2" fill="#1D9E75" opacity="0.6" />
    <!-- Status sidebar -->
    <rect x="400" y="218" width="180" height="162" rx="8" fill="#131320" stroke="rgba(255,255,255,0.07)"
        stroke-width="1" />
    <rect x="412" y="230" width="80" height="10" rx="2" fill="#F0F0F8" opacity="0.5" />
    <rect x="412" y="250" width="156" height="1" fill="rgba(255,255,255,0.07)" />
    <circle cx="422" cy="272" r="5" fill="#1D9E75" opacity="0.8" />
    <rect x="434" y="268" width="80" height="8" rx="2" fill="#F0F0F8" opacity="0.5" />
    <circle cx="422" cy="294" r="5" fill="#E9A526" opacity="0.8" />
    <rect x="434" y="290" width="70" height="8" rx="2" fill="#8888AA" opacity="0.5" />
    <circle cx="422" cy="316" r="5" fill="#E9A526" opacity="0.8" />
    <rect x="434" y="312" width="90" height="8" rx="2" fill="#8888AA" opacity="0.5" />
    <rect x="412" y="336" width="156" height="28" rx="6" fill="#378ADD" />
    <rect x="450" y="344" width="80" height="12" rx="3" fill="white" opacity="0.9" />
</svg>
