<svg xmlns="http://www.w3.org/2000/svg" width="600" height="400" viewBox="0 0 600 400" fill="none">
  <rect width="600" height="400" rx="8" fill="#0D0D1A"/>
  <!-- Header -->
  <rect x="0" y="0" width="600" height="48" rx="8" fill="#131320"/>
  <rect x="0" y="40" width="600" height="8" fill="#131320"/>
  <rect x="20" y="16" width="100" height="16" rx="4" fill="#F0F0F8" opacity="0.6"/>
  <!-- Provider tabs -->
  <rect x="20" y="62" width="560" height="36" rx="6" fill="#0A0A17"/>
  <rect x="24" y="66" width="90" height="28" rx="5" fill="#378ADD" opacity="0.15" stroke="rgba(55,138,221,0.4)" stroke-width="1"/>
  <rect x="32" y="74" width="74" height="12" rx="3" fill="#378ADD" opacity="0.8"/>
  <rect x="122" y="74" width="70" height="12" rx="3" fill="#8888AA" opacity="0.4"/>
  <rect x="200" y="74" width="60" height="12" rx="3" fill="#8888AA" opacity="0.4"/>
  <!-- Notification log -->
  <rect x="20" y="110" width="560" height="260" rx="8" fill="#131320" stroke="rgba(255,255,255,0.07)" stroke-width="1"/>
  <!-- Table header -->
  <rect x="20" y="110" width="560" height="36" rx="8" fill="#0A0A17"/>
  <rect x="20" y="138" width="560" height="8" fill="#0A0A17"/>
  <rect x="32" y="120" width="50" height="10" rx="2" fill="#8888AA" opacity="0.5"/>
  <rect x="130" y="120" width="60" height="10" rx="2" fill="#8888AA" opacity="0.5"/>
  <rect x="260" y="120" width="80" height="10" rx="2" fill="#8888AA" opacity="0.5"/>
  <rect x="430" y="120" width="50" height="10" rx="2" fill="#8888AA" opacity="0.5"/>
  <rect x="510" y="120" width="50" height="10" rx="2" fill="#8888AA" opacity="0.5"/>
  <!-- Row 1 - sent -->
  <rect x="32" y="156" width="80" height="10" rx="2" fill="#F0F0F8" opacity="0.6"/>
  <rect x="130" y="156" width="70" height="10" rx="2" fill="#8888AA" opacity="0.5"/>
  <rect x="260" y="152" width="140" height="18" rx="3" fill="#0A0A17"/>
  <rect x="264" y="156" width="100" height="10" rx="2" fill="#8888AA" opacity="0.4"/>
  <rect x="430" y="152" width="56" height="18" rx="9" fill="#1D9E75" opacity="0.15"/>
  <rect x="442" y="156" width="32" height="10" rx="2" fill="#1D9E75" opacity="0.7"/>
  <rect x="510" y="152" width="56" height="18" rx="4" fill="#0A0A17"/>
  <rect x="518" y="156" width="40" height="10" rx="2" fill="#8888AA" opacity="0.4"/>
  <rect x="20" y="180" width="560" height="1" fill="rgba(255,255,255,0.05)"/>
  <!-- Row 2 - sent -->
  <rect x="32" y="192" width="75" height="10" rx="2" fill="#F0F0F8" opacity="0.6"/>
  <rect x="130" y="192" width="65" height="10" rx="2" fill="#8888AA" opacity="0.5"/>
  <rect x="260" y="188" width="140" height="18" rx="3" fill="#0A0A17"/>
  <rect x="264" y="192" width="120" height="10" rx="2" fill="#8888AA" opacity="0.4"/>
  <rect x="430" y="188" width="56" height="18" rx="9" fill="#1D9E75" opacity="0.15"/>
  <rect x="442" y="192" width="32" height="10" rx="2" fill="#1D9E75" opacity="0.7"/>
  <rect x="510" y="188" width="56" height="18" rx="4" fill="#0A0A17"/>
  <rect x="518" y="192" width="40" height="10" rx="2" fill="#8888AA" opacity="0.4"/>
  <rect x="20" y="216" width="560" height="1" fill="rgba(255,255,255,0.05)"/>
  <!-- Row 3 - failed -->
  <rect x="32" y="228" width="85" height="10" rx="2" fill="#F0F0F8" opacity="0.6"/>
  <rect x="130" y="228" width="75" height="10" rx="2" fill="#8888AA" opacity="0.5"/>
  <rect x="260" y="224" width="140" height="18" rx="3" fill="#0A0A17"/>
  <rect x="264" y="228" width="90" height="10" rx="2" fill="#8888AA" opacity="0.4"/>
  <rect x="430" y="224" width="56" height="18" rx="9" fill="#E24B4A" opacity="0.15"/>
  <rect x="442" y="228" width="32" height="10" rx="2" fill="#E24B4A" opacity="0.7"/>
  <rect x="510" y="224" width="56" height="18" rx="4" fill="#0A0A17"/>
  <rect x="518" y="228" width="40" height="10" rx="2" fill="#8888AA" opacity="0.4"/>
  <rect x="20" y="252" width="560" height="1" fill="rgba(255,255,255,0.05)"/>
  <!-- Row 4 - sent -->
  <rect x="32" y="264" width="70" height="10" rx="2" fill="#F0F0F8" opacity="0.6"/>
  <rect x="130" y="264" width="80" height="10" rx="2" fill="#8888AA" opacity="0.5"/>
  <rect x="260" y="260" width="140" height="18" rx="3" fill="#0A0A17"/>
  <rect x="264" y="264" width="110" height="10" rx="2" fill="#8888AA" opacity="0.4"/>
  <rect x="430" y="260" width="56" height="18" rx="9" fill="#1D9E75" opacity="0.15"/>
  <rect x="442" y="264" width="32" height="10" rx="2" fill="#1D9E75" opacity="0.7"/>
  <rect x="510" y="260" width="56" height="18" rx="4" fill="#0A0A17"/>
  <rect x="518" y="264" width="40" height="10" rx="2" fill="#8888AA" opacity="0.4"/>
  <rect x="20" y="288" width="560" height="1" fill="rgba(255,255,255,0.05)"/>
  <!-- Row 5 - sent -->
  <rect x="32" y="300" width="78" height="10" rx="2" fill="#F0F0F8" opacity="0.6"/>
  <rect x="130" y="300" width="60" height="10" rx="2" fill="#8888AA" opacity="0.5"/>
  <rect x="260" y="296" width="140" height="18" rx="3" fill="#0A0A17"/>
  <rect x="264" y="300" width="95" height="10" rx="2" fill="#8888AA" opacity="0.4"/>
  <rect x="430" y="296" width="56" height="18" rx="9" fill="#1D9E75" opacity="0.15"/>
  <rect x="442" y="300" width="32" height="10" rx="2" fill="#1D9E75" opacity="0.7"/>
  <rect x="510" y="296" width="56" height="18" rx="4" fill="#0A0A17"/>
  <rect x="518" y="300" width="40" height="10" rx="2" fill="#8888AA" opacity="0.4"/>
  <rect x="20" y="324" width="560" height="1" fill="rgba(255,255,255,0.05)"/>
  <!-- Pagination -->
  <rect x="20" y="334" width="560" height="36" rx="0" fill="#0A0A17"/>
  <rect x="20" y="334" width="560" height="1" fill="rgba(255,255,255,0.07)"/>
  <rect x="32" y="344" width="120" height="10" rx="2" fill="#8888AA" opacity="0.4"/>
  <rect x="484" y="340" width="32" height="20" rx="4" fill="rgba(255,255,255,0.05)"/>
  <rect x="524" y="340" width="32" height="20" rx="4" fill="rgba(255,255,255,0.05)"/>
</svg>
