<svg xmlns="http://www.w3.org/2000/svg" width="600" height="400" viewBox="0 0 600 400" fill="none">
    <rect width="600" height="400" rx="8" fill="#0D0D1A" />
    <rect width="600" height="400" rx="8" fill="url(#border_dash)" opacity="0.5" />
    <!-- Top bar -->
    <rect x="0" y="0" width="600" height="48" rx="8" fill="#131320" />
    <rect x="0" y="40" width="600" height="8" fill="#131320" />
    <circle cx="20" cy="24" r="6" fill="#378ADD" opacity="0.8" />
    <rect x="34" y="18" width="80" height="12" rx="3" fill="#1E1E35" />
    <rect x="480" y="14" width="100" height="20" rx="6" fill="#378ADD" opacity="0.15" />
    <!-- Sidebar -->
    <rect x="0" y="48" width="160" height="352" fill="#0A0A17" />
    <rect x="12" y="68" width="136" height="32" rx="6" fill="#378ADD" opacity="0.15" />
    <rect x="20" y="78" width="80" height="12" rx="3" fill="#378ADD" opacity="0.7" />
    <rect x="12" y="108" width="136" height="32" rx="6" fill="transparent" />
    <rect x="20" y="118" width="60" height="12" rx="3" fill="#8888AA" opacity="0.5" />
    <rect x="12" y="148" width="136" height="32" rx="6" fill="transparent" />
    <rect x="20" y="158" width="70" height="12" rx="3" fill="#8888AA" opacity="0.5" />
    <rect x="12" y="188" width="136" height="32" rx="6" fill="transparent" />
    <rect x="20" y="198" width="55" height="12" rx="3" fill="#8888AA" opacity="0.5" />
    <rect x="12" y="228" width="136" height="32" rx="6" fill="transparent" />
    <rect x="20" y="238" width="65" height="12" rx="3" fill="#8888AA" opacity="0.5" />
    <!-- Main content -->
    <!-- Stat cards -->
    <rect x="176" y="60" width="96" height="70" rx="6" fill="#131320" stroke="rgba(255,255,255,0.07)"
        stroke-width="1" />
    <rect x="188" y="72" width="40" height="10" rx="2" fill="#8888AA" opacity="0.6" />
    <rect x="188" y="90" width="60" height="18" rx="3" fill="#F0F0F8" opacity="0.8" />
    <rect x="280" y="60" width="96" height="70" rx="6" fill="#131320" stroke="rgba(255,255,255,0.07)"
        stroke-width="1" />
    <rect x="292" y="72" width="40" height="10" rx="2" fill="#8888AA" opacity="0.6" />
    <rect x="292" y="90" width="40" height="18" rx="3" fill="#E9A526" opacity="0.8" />
    <rect x="384" y="60" width="96" height="70" rx="6" fill="#131320" stroke="rgba(255,255,255,0.07)"
        stroke-width="1" />
    <rect x="396" y="72" width="50" height="10" rx="2" fill="#8888AA" opacity="0.6" />
    <rect x="396" y="90" width="70" height="18" rx="3" fill="#1D9E75" opacity="0.8" />
    <rect x="488" y="60" width="96" height="70" rx="6" fill="#131320" stroke="rgba(255,255,255,0.07)"
        stroke-width="1" />
    <rect x="500" y="72" width="45" height="10" rx="2" fill="#8888AA" opacity="0.6" />
    <rect x="500" y="90" width="55" height="18" rx="3" fill="#378ADD" opacity="0.8" />
    <!-- Appointments table -->
    <rect x="176" y="144" width="408" height="200" rx="6" fill="#131320" stroke="rgba(255,255,255,0.07)"
        stroke-width="1" />
    <rect x="188" y="156" width="100" height="12" rx="3" fill="#F0F0F8" opacity="0.7" />
    <rect x="176" y="176" width="408" height="1" fill="rgba(255,255,255,0.07)" />
    <!-- Table rows -->
    <rect x="188" y="188" width="80" height="10" rx="2" fill="#F0F0F8" opacity="0.5" />
    <rect x="320" y="188" width="60" height="10" rx="2" fill="#8888AA" opacity="0.5" />
    <rect x="440" y="184" width="56" height="18" rx="12" fill="#1D9E75" opacity="0.2" />
    <rect x="452" y="189" width="32" height="8" rx="2" fill="#1D9E75" opacity="0.7" />
    <rect x="176" y="208" width="408" height="1" fill="rgba(255,255,255,0.04)" />
    <rect x="188" y="220" width="70" height="10" rx="2" fill="#F0F0F8" opacity="0.5" />
    <rect x="320" y="220" width="70" height="10" rx="2" fill="#8888AA" opacity="0.5" />
    <rect x="440" y="216" width="56" height="18" rx="12" fill="#E9A526" opacity="0.2" />
    <rect x="452" y="221" width="32" height="8" rx="2" fill="#E9A526" opacity="0.7" />
    <rect x="176" y="240" width="408" height="1" fill="rgba(255,255,255,0.04)" />
    <rect x="188" y="252" width="85" height="10" rx="2" fill="#F0F0F8" opacity="0.5" />
    <rect x="320" y="252" width="55" height="10" rx="2" fill="#8888AA" opacity="0.5" />
    <rect x="440" y="248" width="56" height="18" rx="12" fill="#378ADD" opacity="0.2" />
    <rect x="452" y="253" width="32" height="8" rx="2" fill="#378ADD" opacity="0.7" />
    <rect x="176" y="272" width="408" height="1" fill="rgba(255,255,255,0.04)" />
    <rect x="188" y="284" width="75" height="10" rx="2" fill="#F0F0F8" opacity="0.5" />
    <rect x="320" y="284" width="65" height="10" rx="2" fill="#8888AA" opacity="0.5" />
    <rect x="440" y="280" width="56" height="18" rx="12" fill="#E24B4A" opacity="0.2" />
    <rect x="452" y="285" width="32" height="8" rx="2" fill="#E24B4A" opacity="0.7" />
    <!-- Bottom bar -->
    <rect x="176" y="356" width="408" height="36" rx="6" fill="#131320" stroke="rgba(255,255,255,0.07)"
        stroke-width="1" />
    <rect x="188" y="366" width="120" height="10" rx="2" fill="#8888AA" opacity="0.4" />
    <defs>
        <linearGradient id="border_dash" x1="0" y1="0" x2="600" y2="400" gradientUnits="userSpaceOnUse">
            <stop stop-color="#378ADD" stop-opacity="0.08" />
            <stop offset="1" stop-color="#1D9E75" stop-opacity="0.04" />
        </linearGradient>
    </defs>
</svg>
